<svg data-v-423bf9ae="" xmlns="http://www.w3.org/2000/svg" width="433" height="90" viewBox="0 0 433 90" class="iconLeft"><!----><!----><!---->
    <g data-v-423bf9ae="" id="1562837d-aa65-4b55-be2d-78087eb38513" fill="#369"
       transform="matrix(4.501125307082416,0,0,4.501125307082416,148.7485638647761,-2.95948882609202)">
        <path d="M7.48 15.04C7.48 13.78 6.72 13.02 4.93 13.02L3.14 13.02C2.49 13.02 2.11 12.87 2.11 12.47C2.11 12.11 2.45 11.87 2.81 11.75C3.08 11.82 3.42 11.86 3.77 11.86C5.61 11.86 6.68 10.86 6.68 9.39C6.68 8.55 6.31 7.85 5.66 7.42L5.66 7.13L7.14 7.13L7.14 5.89L6.02 5.89C5.38 5.89 5.07 6.29 5.07 6.93L5.07 7.13C4.69 6.97 4.24 6.90 3.75 6.90C1.90 6.90 0.85 7.91 0.85 9.39C0.85 10.37 1.33 11.14 2.18 11.55L2.18 11.61C1.48 11.77 0.90 12.14 0.90 12.89C0.90 13.44 1.19 13.85 1.72 14.01L1.72 14.17C0.95 14.34 0.48 14.77 0.48 15.57C0.48 16.67 1.40 17.32 3.78 17.32C6.40 17.32 7.48 16.55 7.48 15.04ZM6.05 15.20C6.05 15.88 5.46 16.21 4.27 16.21L3.32 16.21C2.18 16.21 1.75 15.81 1.75 15.22C1.75 14.87 1.92 14.57 2.25 14.38L4.72 14.38C5.71 14.38 6.05 14.70 6.05 15.20ZM3.77 10.75C2.87 10.75 2.35 10.35 2.35 9.52L2.35 9.24C2.35 8.41 2.87 8.01 3.77 8.01C4.66 8.01 5.18 8.41 5.18 9.24L5.18 9.52C5.18 10.35 4.66 10.75 3.77 10.75ZM11.38 14.52C13.41 14.52 14.73 13.03 14.73 10.71C14.73 8.39 13.41 6.90 11.38 6.90C9.35 6.90 8.04 8.39 8.04 10.71C8.04 13.03 9.35 14.52 11.38 14.52ZM11.38 13.26C10.35 13.26 9.65 12.61 9.65 11.33L9.65 10.09C9.65 8.81 10.35 8.16 11.38 8.16C12.42 8.16 13.12 8.81 13.12 10.09L13.12 11.33C13.12 12.61 12.42 13.26 11.38 13.26ZM17.95 14.35L17.95 9.46C17.95 8.62 18.69 8.22 19.45 8.22C20.34 8.22 20.78 8.78 20.78 9.91L20.78 14.35L22.30 14.35L22.30 9.46C22.30 8.62 23.02 8.22 23.79 8.22C24.71 8.22 25.13 8.79 25.13 9.91L25.13 14.35L26.66 14.35L26.66 9.73C26.66 7.94 25.80 6.90 24.36 6.90C23.18 6.90 22.43 7.57 22.16 8.39L22.12 8.39C21.77 7.38 20.94 6.90 19.96 6.90C18.86 6.90 18.31 7.52 18.02 8.27L17.95 8.27L17.95 7.07L16.42 7.07L16.42 14.35ZM31.63 14.52C33.66 14.52 34.97 13.03 34.97 10.71C34.97 8.39 33.66 6.90 31.63 6.90C29.60 6.90 28.28 8.39 28.28 10.71C28.28 13.03 29.60 14.52 31.63 14.52ZM31.63 13.26C30.59 13.26 29.89 12.61 29.89 11.33L29.89 10.09C29.89 8.81 30.59 8.16 31.63 8.16C32.66 8.16 33.36 8.81 33.36 10.09L33.36 11.33C33.36 12.61 32.66 13.26 31.63 13.26ZM41.24 14.35L42.77 14.35L42.77 3.99L41.24 3.99L41.24 8.27L41.17 8.27C40.87 7.41 40.10 6.90 39.13 6.90C37.30 6.90 36.23 8.32 36.23 10.71C36.23 13.10 37.30 14.52 39.13 14.52C40.10 14.52 40.87 14 41.17 13.15L41.24 13.15ZM39.59 13.20C38.54 13.20 37.84 12.46 37.84 11.34L37.84 10.08C37.84 8.96 38.54 8.22 39.59 8.22C40.52 8.22 41.24 8.72 41.24 9.46L41.24 11.96C41.24 12.70 40.52 13.20 39.59 13.20ZM47.81 14.52C49.17 14.52 50.23 13.93 50.78 13.05L49.88 12.17C49.46 12.84 48.86 13.26 47.96 13.26C46.73 13.26 46.05 12.46 46.05 11.34L46.05 11.10L51.04 11.10L51.04 10.53C51.04 8.51 49.95 6.90 47.81 6.90C45.74 6.90 44.46 8.39 44.46 10.71C44.46 13.03 45.74 14.52 47.81 14.52ZM47.81 8.09C48.82 8.09 49.43 8.83 49.43 9.95L49.43 10.09L46.05 10.09L46.05 10.00C46.05 8.88 46.76 8.09 47.81 8.09ZM55.05 14.52C56.80 14.52 57.93 13.58 57.93 12.18C57.93 11.00 57.22 10.30 55.62 10.07L54.95 9.98C54.18 9.86 53.83 9.60 53.83 9.04C53.83 8.50 54.22 8.13 55.06 8.13C55.85 8.13 56.46 8.51 56.84 8.96L57.78 8.06C57.12 7.34 56.38 6.90 55.06 6.90C53.47 6.90 52.36 7.73 52.36 9.14C52.36 10.49 53.27 11.13 54.75 11.31L55.43 11.40C56.18 11.49 56.46 11.84 56.46 12.31C56.46 12.92 56.01 13.29 55.13 13.29C54.26 13.29 53.61 12.89 53.07 12.25L52.09 13.15C52.78 14 53.68 14.52 55.05 14.52ZM62.90 14.35L62.90 13.10L61.49 13.10L61.49 8.32L63.01 8.32L63.01 7.07L61.49 7.07L61.49 5.08L60.12 5.08L60.12 6.36C60.12 6.86 59.95 7.07 59.44 7.07L58.83 7.07L58.83 8.32L59.96 8.32L59.96 12.77C59.96 13.76 60.52 14.35 61.57 14.35Z"></path>
    </g><!---->
    <g data-v-423bf9ae="" id="c85f3330-f040-41e7-9109-271a68de14ad"
       transform="matrix(1.3636363636363635,0,0,1.3636363636363635,-2.181818138469339,-23.181818181818173)"
       stroke="none" fill="#369">
        <path d="M95 17H35a3 3 0 0 0-3 3v60a3 3 0 0 0 3 3h60a3 3 0 0 0 3-3V20a3 3 0 0 0-3-3zm-3 60H38V23h54zM12.5 62A10.5 10.5 0 1 0 23 72.5 10.511 10.511 0 0 0 12.5 62zm0 15a4.5 4.5 0 1 1 4.5-4.5 4.505 4.505 0 0 1-4.5 4.5z"></path>
    </g><!---->
</svg>